<?xml version="1.0" encoding="UTF-8" standalone="no"?>
<svg
   xmlns:dc="http://purl.org/dc/elements/1.1/"
   xmlns:cc="http://creativecommons.org/ns#"
   xmlns:rdf="http://www.w3.org/1999/02/22-rdf-syntax-ns#"
   xmlns:svg="http://www.w3.org/2000/svg"
   xmlns="http://www.w3.org/2000/svg"
   xml:space="preserve"
   viewBox="0 0 30 30"
   version="1.1"
   style="enable-background:new 0 0 30 30;"
   id="Layer_1"><metadata
     id="metadata21"><rdf:RDF><cc:Work
         rdf:about=""><dc:format>image/svg+xml</dc:format><dc:type
           rdf:resource="http://purl.org/dc/dcmitype/StillImage" /><dc:title></dc:title></cc:Work></rdf:RDF></metadata><defs
     id="defs19" /><path
     id="path10"
     d="M3.158,26.134C6.066,23.557,5,21,5,21l7,2c0,0-3.663,3.721-8.417,3.99L3.158,26.134z" /><circle
     id="circle12"
     r="0.5"
     cy="26.5"
     cx="3.5" /><path
     id="path14"
     d="M15,3C7.82,3,2,7.925,2,14s5.82,11,13,11s13-4.925,13-11S22.18,3,15,3z M16,20h-2v-7h2V20z M15,10.5  c-0.828,0-1.5-0.672-1.5-1.5s0.672-1.5,1.5-1.5s1.5,0.672,1.5,1.5S15.828,10.5,15,10.5z" /></svg>