<?xml version="1.0" encoding="UTF-8" standalone="no"?>
<svg
   xmlns:dc="http://purl.org/dc/elements/1.1/"
   xmlns:cc="http://creativecommons.org/ns#"
   xmlns:rdf="http://www.w3.org/1999/02/22-rdf-syntax-ns#"
   xmlns:svg="http://www.w3.org/2000/svg"
   xmlns="http://www.w3.org/2000/svg"
   id="svg8"
   version="1.1"
   viewBox="0 0 201.51712 150.09218"
   height="150.09218mm"
   width="201.51712mm">
  <defs
     id="defs2" />
  <metadata
     id="metadata5">
    <rdf:RDF>
      <cc:Work
         rdf:about="">
        <dc:format>image/svg+xml</dc:format>
        <dc:type
           rdf:resource="http://purl.org/dc/dcmitype/StillImage" />
        <dc:title></dc:title>
      </cc:Work>
    </rdf:RDF>
  </metadata>
  <g
     transform="translate(-2.806916,-47.328911)"
     id="layer1">
    <g
       id="layer1-6"
       transform="translate(-48.380297,45.857389)">
      <path
         style="stroke-width:0.29330966"
         d="M 126.19443,151.52497 88.690959,114.02121 H 60.56315 c -5.18249,0 -9.375937,-4.19403 -9.375937,-9.37623 V 48.389956 c 0,-5.182195 4.193447,-9.375936 9.375937,-9.375936 H 88.690667 L 126.19443,1.5102715 c 0,0 9.37593,-1.17206546 9.37593,9.3759375 0,56.090488 0,140.473621 0,131.262521 0,10.548 -9.37593,9.37624 -9.37593,9.37624 z"
         id="path93" />
      <g
         id="g178"
         transform="matrix(1.7035694,0,0,1.7035694,150.49017,15.539572)"
         style="fill:#000000">
        <path
           id="path172"
           d="M 57,32 H 54.419 C 53.045,28.119 49.352,25.333 45,25.333 c -4.352,0 -8.045,2.786 -9.419,6.667 H 3 c -1.657,0 -3,1.343 -3,3 0,1.656 1.343,3 3,3 h 32.371 c 1.168,4.227 5.031,7.334 9.629,7.334 4.598,0 8.461,-3.107 9.629,-7.334 H 57 c 1.657,0 3,-1.344 3,-3 0,-1.657 -1.343,-3 -3,-3 z"
           style="fill:#000000" />
        <path
           id="path174"
           d="M 57,58 H 24.419 C 23.045,54.119 19.352,51.334 15,51.334 10.648,51.334 6.955,54.119 5.581,58 H 3 c -1.657,0 -3,1.344 -3,3 0,1.656 1.343,3 3,3 h 2.371 c 1.168,4.227 5.031,7.334 9.629,7.334 4.598,0 8.461,-3.107 9.629,-7.334 H 57 c 1.657,0 3,-1.344 3,-3 0,-1.656 -1.343,-3 -3,-3 z"
           style="fill:#000000" />
        <path
           id="path176"
           d="m 3,13 h 2.371 c 1.168,4.227 5.031,7.333 9.629,7.333 4.598,0 8.461,-3.107 9.629,-7.333 H 57 c 1.657,0 3,-1.343 3,-3 C 60,8.343 58.657,7 57,7 H 24.419 C 23.045,3.119 19.352,0.333 15,0.333 10.648,0.333 6.955,3.119 5.581,7 H 3 c -1.657,0 -3,1.343 -3,3 0,1.657 1.343,3 3,3 z"
           style="fill:#000000" />
      </g>
    </g>
  </g>
</svg>
