<?xml version="1.0" ?><svg id="Layer_1" style="enable-background:new 0 0 30 30;" version="1.1" viewBox="0 0 30 30" xml:space="preserve" xmlns="http://www.w3.org/2000/svg" xmlns:xlink="http://www.w3.org/1999/xlink"><path d="M7,5H6C5.448,5,5,5.448,5,6h3C8,5.448,7.552,5,7,5z"/><circle cx="15" cy="15" r="5"/><path d="M26,7h-4.264c-0.758,0-1.45-0.428-1.789-1.106l-0.394-0.789C19.214,4.428,18.521,4,17.764,4h-5.528  c-0.758,0-1.45,0.428-1.789,1.106l-0.394,0.789C9.714,6.572,9.021,7,8.264,7H4C2.895,7,2,7.895,2,9v13c0,1.105,0.895,2,2,2h22  c1.105,0,2-0.895,2-2V9C28,7.895,27.105,7,26,7z M15,22c-3.86,0-7-3.14-7-7c0-3.86,3.14-7,7-7s7,3.14,7,7C22,18.86,18.86,22,15,22z   M24,11c-0.552,0-1-0.448-1-1c0-0.552,0.448-1,1-1s1,0.448,1,1C25,10.552,24.552,11,24,11z"/></svg>