<?xml version="1.0" encoding="UTF-8" standalone="no"?>
<svg
   xmlns:dc="http://purl.org/dc/elements/1.1/"
   xmlns:cc="http://creativecommons.org/ns#"
   xmlns:rdf="http://www.w3.org/1999/02/22-rdf-syntax-ns#"
   xmlns:svg="http://www.w3.org/2000/svg"
   xmlns="http://www.w3.org/2000/svg"
   width="301.17145mm"
   height="301.17145mm"
   viewBox="0 0 301.17145 301.17145"
   version="1.1"
   id="svg8">
  <defs
     id="defs2" />
  <metadata
     id="metadata5">
    <rdf:RDF>
      <cc:Work
         rdf:about="">
        <dc:format>image/svg+xml</dc:format>
        <dc:type
           rdf:resource="http://purl.org/dc/dcmitype/StillImage" />
        <dc:title></dc:title>
      </cc:Work>
    </rdf:RDF>
  </metadata>
  <rect
     y="0.045711506"
     x="-0.46220374"
     height="301.81906"
     width="301.81903"
     id="rect3690"
     style="fill:none;stroke-width:0.27480623" />
  <g
     id="layer1"
     transform="translate(263.22262,78.859528)">
    <g
       id="Page-1"
       transform="matrix(9.0776965,0,0,9.0776965,-203.98782,-18.596884)"
       style="fill:none;fill-rule:evenodd;stroke:none;stroke-width:1">
      <g
         transform="translate(-464,-380)"
         id="Core"
         style="fill:#000000">
        <g
           transform="translate(464,380)"
           id="settings">
          <path
             id="Shape"
             d="m 17.4,11 c 0,-0.3 0.1,-0.6 0.1,-1 0,-0.4 0,-0.7 -0.1,-1 l 2.1,-1.7 c 0.2,-0.2 0.2,-0.4 0.1,-0.6 l -2,-3.5 C 17.5,3.1 17.3,3 17,3.1 l -2.5,1 C 14,3.7 13.4,3.4 12.8,3.1 L 12.4,0.5 C 12.5,0.2 12.2,0 12,0 H 8 C 7.8,0 7.5,0.2 7.5,0.4 L 7.1,3.1 C 6.5,3.3 6,3.7 5.4,4.1 L 3,3.1 C 2.7,3 2.5,3.1 2.3,3.3 l -2,3.5 c -0.1,0.1 0,0.4 0.2,0.6 L 2.6,9 c 0,0.3 -0.1,0.6 -0.1,1 0,0.4 0,0.7 0.1,1 l -2.1,1.7 c -0.2,0.2 -0.2,0.4 -0.1,0.6 l 2,3.5 C 2.5,16.9 2.7,17 3,16.9 l 2.5,-1 c 0.5,0.4 1.1,0.7 1.7,1 l 0.4,2.6 c 0,0.2 0.2,0.4 0.5,0.4 h 4 c 0.2,0 0.5,-0.2 0.5,-0.4 L 13,16.9 c 0.6,-0.3 1.2,-0.6 1.7,-1 l 2.5,1 c 0.2,0.1 0.5,0 0.6,-0.2 l 2,-3.5 C 19.9,13 19.9,12.7 19.7,12.6 Z M 10,13.5 C 8.1,13.5 6.5,11.9 6.5,10 6.5,8.1 8.1,6.5 10,6.5 c 1.9,0 3.5,1.6 3.5,3.5 0,1.9 -1.6,3.5 -3.5,3.5 z" />
        </g>
      </g>
    </g>
  </g>
</svg>
