<?xml version="1.0" encoding="UTF-8" standalone="no"?>
<svg
   xmlns:dc="http://purl.org/dc/elements/1.1/"
   xmlns:cc="http://creativecommons.org/ns#"
   xmlns:rdf="http://www.w3.org/1999/02/22-rdf-syntax-ns#"
   xmlns:svg="http://www.w3.org/2000/svg"
   xmlns="http://www.w3.org/2000/svg"
   xml:space="preserve"
   viewBox="0 0 30 30"
   version="1.1"
   style="enable-background:new 0 0 30 30;"
   id="Layer_1">
	<metadata
     id="metadata3697">
		<rdf:RDF>
			<cc:Work
         rdf:about="">
				<dc:format>image/svg+xml</dc:format>
				<dc:type
           rdf:resource="http://purl.org/dc/dcmitype/StillImage" />
				<dc:title/>
			</cc:Work>
		</rdf:RDF>
	</metadata>
	<defs
     id="defs3695" />
	<path
     id="path3690"
     d="M15,3C8.373,3,3,8.373,3,15c0,6.627,5.373,12,12,12s12-5.373,12-12C27,8.373,21.627,3,15,3z M15,5c0.552,0,1,0.448,1,1  c0,0.552-0.448,1-1,1s-1-0.448-1-1C14,5.448,14.448,5,15,5z M6,16c-0.552,0-1-0.448-1-1c0-0.552,0.448-1,1-1s1,0.448,1,1  C7,15.552,6.552,16,6,16z M9.343,22.071c-0.391,0.391-1.024,0.391-1.414,0c-0.391-0.391-0.391-1.024,0-1.414  c0.391-0.391,1.024-0.391,1.414,0C9.734,21.047,9.734,21.681,9.343,22.071z M9.343,9.343c-0.391,0.391-1.024,0.391-1.414,0  c-0.391-0.391-0.391-1.024,0-1.414c0.391-0.391,1.024-0.391,1.414,0C9.734,8.319,9.734,8.953,9.343,9.343z M13.586,16.414  c-0.781-0.781-0.781-2.047,0-2.828c0.491-0.491,4.477-3.36,7.372-5.425c0.581-0.414,1.296,0.301,0.881,0.881  c-2.065,2.895-4.934,6.881-5.425,7.372C15.633,17.195,14.367,17.195,13.586,16.414z M22.071,22.071  c-0.391,0.391-1.024,0.391-1.414,0s-0.391-1.024,0-1.414c0.391-0.391,1.024-0.391,1.414,0  C22.462,21.047,22.462,21.681,22.071,22.071z M24,16c-0.552,0-1-0.448-1-1c0-0.552,0.448-1,1-1s1,0.448,1,1  C25,15.552,24.552,16,24,16z" />
</svg>