<?xml version="1.0" ?><!DOCTYPE svg  PUBLIC '-//W3C//DTD SVG 1.1//EN'  'http://www.w3.org/Graphics/SVG/1.1/DTD/svg11.dtd'><svg enable-background="new 0 0 512 512" height="512px" id="Layer_1" version="1.1" viewBox="0 0 512 512" width="512px" xml:space="preserve" xmlns="http://www.w3.org/2000/svg" xmlns:xlink="http://www.w3.org/1999/xlink"><g><g><path d="M178.375,287.812L73.094,393.094L32,352c-17.688,0-32,14.312-32,32v96c0,17.688,14.312,32,32,32h96    c17.688,0,32-14.312,32-32l-41.095-41.062l105.281-105.312L178.375,287.812z M480,0h-96c-17.688,0-32,14.328-32,32l41.094,41.094    L287.812,178.375l45.812,45.812l105.281-105.266L480,160c17.688,0,32-14.312,32-32V32C512,14.328,497.688,0,480,0z M480,352    l-41.095,41.094l-105.28-105.281l-45.812,45.812l105.281,105.312L352,480c0,17.688,14.312,32,32,32h96c17.688,0,32-14.312,32-32    v-96C512,366.312,497.688,352,480,352z M160,32c0-17.672-14.312-32-32-32H32C14.312,0,0,14.328,0,32v96c0,17.688,14.312,32,32,32    l41.094-41.078l105.281,105.266l45.812-45.812L118.906,73.094L160,32z"/></g></g></svg>