<?xml version="1.0" encoding="UTF-8" standalone="no"?>
<svg
   xmlns:dc="http://purl.org/dc/elements/1.1/"
   xmlns:cc="http://creativecommons.org/ns#"
   xmlns:rdf="http://www.w3.org/1999/02/22-rdf-syntax-ns#"
   xmlns:svg="http://www.w3.org/2000/svg"
   xmlns="http://www.w3.org/2000/svg"
   xml:space="preserve"
   width="512px"
   viewBox="0 0 512 512"
   version="1.1"
   id="Layer_1"
   height="512px"
   enable-background="new 0 0 512 512"><metadata
     id="metadata3699"><rdf:RDF><cc:Work
         rdf:about=""><dc:format>image/svg+xml</dc:format><dc:type
           rdf:resource="http://purl.org/dc/dcmitype/StillImage" /><dc:title></dc:title></cc:Work></rdf:RDF></metadata><defs
     id="defs3697" /><path
     id="path3705"
     d="m 511.603,303.727 -47.694,47.726 -47.726,-47.726 -47.726,47.726 -47.693,-47.726 47.693,-47.727 -47.693,-47.725 47.693,-47.726 47.726,47.726 47.726,-47.726 47.694,47.726 L 463.907,256 Z" /><path
     id="path3703"
     d="M 256.266,511.868 128.332,383.936 H 32.381 c -17.678,0 -31.983,-14.307 -31.983,-31.983 V 160.05 c 0,-17.679 14.307,-31.983 31.983,-31.983 h 95.951 L 256.266,0.133 c 0,0 31.983,-3.998 31.983,31.983 0,173.535 0,425.718 0,447.769 0,35.981 -31.983,31.983 -31.983,31.983 z" /></svg>